<svg xmlns="http://www.w3.org/2000/svg" viewBox="0 0 110.43 39.13"><defs><style>.cls-1{font-size:31.25px;font-family:MyriadPro-Regular, Myriad Pro;}.cls-1,.cls-6{fill:#1e1e1e;}.cls-2{letter-spacing:-0.01em;}.cls-3,.cls-4,.cls-5{fill:#d31313;}.cls-3{letter-spacing:-0.01em;}.cls-5{letter-spacing:-0.01em;}.cls-6{stroke:#1a1a1a;stroke-miterlimit:10;stroke-width:3px;}.cls-7{fill:#fff;}</style></defs><title>Asset 3</title><g id="Layer_2" data-name="Layer 2"><g id="Layer_1-2" data-name="Layer 1"><text class="cls-1" transform="translate(0 26.16) scale(0.93 1)">au<tspan class="cls-2" x="32.28" y="0">t</tspan><tspan x="42.44" y="0">o</tspan><tspan class="cls-3" x="59.6" y="0">C</tspan><tspan class="cls-4" x="77.5" y="0">a</tspan><tspan class="cls-5" x="92.57" y="0">r</tspan><tspan class="cls-4" x="102.47" y="0">e</tspan></text><line class="cls-6" x1="103.23" y1="35.07" x2="90.58" y2="35.14"/><circle class="cls-4" cx="105.34" cy="35.06" r="3.52"/><path class="cls-7" d="M105.57,33.4l4.61.22L110,36.79l-4.61-.21h0a1.61,1.61,0,0,1,.15-3.18Z"/><line class="cls-6" x1="65.81" y1="35.41" x2="91.93" y2="35.14"/><ellipse class="cls-4" cx="63.53" cy="35.43" rx="3.82" ry="3.69" transform="translate(-5.02 11.09) rotate(-9.6)"/><path class="cls-7" d="M63.26,33.78l-5,.33.2,3.33,5-.33h0a1.68,1.68,0,0,0-.2-3.33Z"/></g></g></svg>